<svg xmlns="http://www.w3.org/2000/svg" viewBox="0 0 291.6 79.2" role="img" aria-label="Olanas">
  <!-- Exact vector artwork extracted from OLANAS Design System v1.0, page 5. -->
  <g transform="translate(-83.4 -215.4)">
    <path fill="#ffffff" fill-rule="evenodd" opacity="1" transform="matrix(1 0 0 -1 0 600)" d="M156 345C156 363.2254 141.2254 378 123 378C104.7746 378 90 363.2254 90 345C90 326.7746 104.7746 312 123 312C141.2254 312 156 326.7746 156 345"/>
    <path fill="#000000" fill-rule="evenodd" opacity="1" transform="matrix(0.23239 0 0 0.23239 90 222)" d="M126 0L158 0L158 1L165 1L165 2L170 2L170 3L175 3L175 4L183 5L183 6L192 8L192 9L194 9L194 10L196 10L196 11L199 11L199 12L201 12L201 13L203 13L203 14L205 14L205 15L207 15L207 16L213 18L214 20L218 21L219 23L221 23L222 25L224 25L226 28L228 28L231 32L233 32L233 33L252 51L252 53L255 55L255 57L258 59L258 61L259 61L260 64L262 65L263 69L265 70L265 72L266 72L266 74L267 74L267 76L268 76L268 78L269 78L269 80L270 80L270 82L271 82L271 84L272 84L272 86L273 86L273 89L274 89L274 91L275 91L275 94L276 94L276 97L277 97L277 100L278 100L278 104L279 104L279 107L280 107L280 112L281 112L281 117L282 117L282 124L283 124L283 138L284 138L283 160L282 160L282 166L281 166L281 171L280 171L279 180L278 180L278 183L277 183L277 186L276 186L274 195L273 195L273 197L272 197L272 199L271 199L271 202L270 202L270 204L269 204L267 210L265 211L263 217L261 218L261 220L259 221L259 223L257 224L257 226L254 228L254 230L249 234L249 236L248 236L236 249L234 249L230 254L228 254L226 257L224 257L223 259L221 259L221 260L218 261L217 263L213 264L212 266L210 266L210 267L208 267L208 268L206 268L206 269L204 269L204 270L202 270L202 271L200 271L200 272L197 272L197 273L195 273L195 274L192 274L192 275L190 275L190 276L187 276L187 277L184 277L184 278L181 278L181 279L177 279L177 280L168 281L168 282L162 282L162 283L132 284L132 283L122 283L122 282L116 282L116 281L106 280L106 279L103 279L103 278L99 278L99 277L93 276L93 275L88 274L88 273L86 273L86 272L83 272L83 271L81 271L81 270L79 270L79 269L73 267L72 265L68 264L68 263L65 262L64 260L60 259L58 256L56 256L53 252L51 252L47 247L45 247L45 246L37 239L37 237L31 232L31 230L28 228L28 226L25 224L25 222L24 222L23 219L21 218L20 214L18 213L18 211L17 211L17 209L16 209L16 207L15 207L15 205L14 205L14 203L13 203L13 201L12 201L12 199L11 199L11 196L10 196L10 194L9 194L9 191L8 191L8 188L7 188L7 185L6 185L6 182L5 182L5 179L4 179L4 174L3 174L2 164L1 164L1 157L0 157L0 126L1 126L1 118L2 118L2 113L3 113L5 101L6 101L6 98L7 98L9 89L10 89L10 87L11 87L11 85L12 85L12 82L13 82L13 80L14 80L14 78L15 78L17 72L19 71L20 67L22 66L22 64L24 63L24 61L26 60L26 58L29 56L29 54L33 51L33 49L34 49L49 33L51 33L54 29L56 29L58 26L60 26L61 24L63 24L63 23L66 22L67 20L71 19L72 17L74 17L74 16L76 16L76 15L78 15L78 14L80 14L80 13L82 13L82 12L85 12L85 11L87 11L87 10L89 10L89 9L92 9L92 8L95 8L95 7L98 7L98 6L101 6L101 5L104 5L104 4L113 3L113 2L118 2L118 1L126 1ZM185 88L185 89L180 89L180 90L177 90L177 91L173 92L172 94L170 94L170 95L163 101L163 103L161 104L161 106L160 106L160 108L159 108L159 111L158 111L157 126L158 126L158 130L159 130L159 133L160 133L162 139L163 139L171 148L173 148L173 149L175 149L175 150L177 150L177 151L180 151L180 152L184 152L184 153L196 153L196 152L199 152L199 151L202 151L202 150L208 148L208 147L209 147L212 143L214 143L214 141L217 139L217 137L218 137L218 135L219 135L219 133L220 133L220 131L221 131L221 127L222 127L222 114L221 114L221 110L220 110L220 108L219 108L217 102L216 102L209 94L207 94L206 92L204 92L204 91L202 91L202 90L199 90L199 89ZM68 100L68 141L108 141L108 140L109 140L109 101L108 101L108 100L106 100L106 101L105 101L105 100ZM185 107L194 107L194 108L198 109L198 110L202 113L202 115L203 115L203 126L202 126L202 128L201 128L197 133L194 133L194 134L185 134L185 133L182 133L182 132L177 128L177 126L176 126L175 120L176 120L177 113L178 113L181 109L183 109L183 108L185 108ZM78 111L98 111L98 131L78 131ZM116 194L116 203L117 203L117 204L165 204L165 203L166 203L166 194Z"/>
    <path fill="#050505" fill-rule="evenodd" opacity="1" transform="matrix(0.53695 0 0 0.53695 174.48 239.16)" d="M23 0L40 0L40 1L43 1L43 2L49 4L51 7L53 7L53 8L56 10L56 12L58 13L58 15L59 15L59 17L60 17L60 19L61 19L61 23L62 23L62 35L61 35L60 42L58 43L58 45L56 46L56 48L55 48L52 52L50 52L48 55L46 55L46 56L44 56L44 57L36 58L36 59L27 59L27 58L18 57L18 56L14 55L13 53L11 53L11 52L5 47L5 45L4 45L4 43L3 43L3 41L2 41L1 33L0 33L0 24L1 24L1 20L2 20L2 17L3 17L4 13L5 13L6 10L7 10L9 7L11 7L13 4L15 4L15 3L17 3L17 2L20 2L20 1L23 1ZM76 0L83 1L83 46L91 46L91 47L95 47L95 46L110 46L110 47L111 47L111 58L69 58L69 1L76 1ZM142 0L151 0L151 1L155 1L155 2L156 2L156 4L157 4L157 6L158 6L158 8L159 8L159 11L160 11L160 13L161 13L161 15L162 15L162 17L163 17L163 20L164 20L164 22L165 22L165 24L166 24L166 27L167 27L167 29L168 29L168 32L169 32L169 34L170 34L170 36L171 36L171 39L172 39L172 41L173 41L173 43L174 43L174 45L175 45L175 47L176 47L176 50L177 50L178 55L179 55L180 58L166 58L161 46L144 46L144 45L143 45L144 37L147 37L147 36L155 36L155 37L156 37L156 33L155 33L154 28L153 28L153 26L152 26L152 24L151 24L151 21L150 21L150 18L149 18L148 14L146 15L146 18L145 18L144 23L143 23L143 25L142 25L142 28L141 28L141 30L140 30L140 32L139 32L139 34L138 34L138 37L137 37L137 39L136 39L136 41L135 41L135 44L134 44L134 46L133 46L133 49L132 49L132 51L131 51L131 53L130 53L129 58L115 58L115 56L116 56L116 54L117 54L117 52L118 52L118 50L119 50L119 47L120 47L120 45L121 45L121 43L122 43L122 41L123 41L123 39L124 39L124 36L125 36L125 34L126 34L126 32L127 32L127 30L128 30L128 27L129 27L129 25L130 25L130 23L131 23L131 21L132 21L132 18L133 18L133 16L134 16L134 14L135 14L135 11L136 11L136 9L137 9L137 7L138 7L138 5L139 5L139 2L142 1ZM230 0L239 0L239 1L240 1L240 57L239 57L239 58L227 58L227 56L223 53L223 51L222 51L222 50L220 49L220 47L216 44L216 42L212 39L212 37L207 33L207 31L202 27L202 25L199 24L199 58L186 58L186 1L198 1L198 2L203 6L203 8L207 11L207 13L212 17L212 19L216 22L216 24L221 28L221 30L226 34L226 1L230 1ZM276 0L283 0L283 1L286 1L286 2L287 2L287 5L288 5L288 7L289 7L289 9L290 9L290 11L291 11L291 14L292 14L292 16L293 16L293 18L294 18L294 20L295 20L295 23L296 23L296 25L297 25L297 28L298 28L298 30L299 30L299 32L300 32L300 34L301 34L301 37L302 37L302 39L303 39L303 41L304 41L304 43L305 43L305 46L306 46L306 48L307 48L307 50L308 50L308 52L309 52L311 58L297 58L296 55L295 55L295 53L294 53L294 50L293 50L292 46L274 46L274 37L276 37L276 36L287 36L287 35L286 35L286 32L285 32L285 29L284 29L284 27L283 27L283 25L282 25L282 23L281 23L281 20L280 20L279 15L277 15L277 17L276 17L276 19L275 19L275 22L274 22L273 27L272 27L272 29L271 29L271 31L270 31L270 33L269 33L269 36L268 36L268 38L267 38L267 41L266 41L266 43L265 43L265 46L264 46L264 48L263 48L263 51L262 51L262 53L261 53L261 55L260 55L260 58L246 58L246 55L247 55L247 53L248 53L248 51L249 51L249 49L250 49L250 46L251 46L251 44L252 44L252 42L253 42L253 40L254 40L254 38L255 38L255 35L256 35L256 33L257 33L257 31L258 31L258 29L259 29L259 26L260 26L260 24L261 24L261 22L262 22L262 19L263 19L263 17L264 17L264 14L265 14L265 12L266 12L266 10L267 10L267 7L268 7L270 1L276 1ZM329 0L346 0L346 1L349 1L349 2L352 2L352 3L358 5L358 8L357 8L357 10L356 10L356 12L355 12L354 15L352 15L351 13L345 12L345 11L340 11L340 10L331 11L331 12L329 12L328 15L327 15L327 18L328 18L329 21L334 22L334 23L338 23L338 24L342 24L342 25L345 25L345 26L352 27L352 28L354 28L354 29L356 29L356 30L358 31L358 33L359 33L359 35L360 35L360 38L361 38L361 44L360 44L360 47L359 47L358 51L357 51L354 55L352 55L352 56L350 56L350 57L342 58L342 59L331 59L331 58L322 57L322 56L320 56L320 55L318 55L318 54L316 54L316 53L313 52L313 50L314 50L314 48L315 48L317 42L319 42L320 44L322 44L322 45L324 45L324 46L330 47L330 48L342 48L342 47L345 47L345 46L347 45L347 43L348 43L348 41L347 41L346 38L344 38L344 37L342 37L342 36L337 36L337 35L332 35L332 34L325 33L325 32L319 30L319 29L315 26L315 23L314 23L314 12L315 12L315 9L316 9L321 3L323 3L323 2L325 2L325 1L329 1ZM29 11L29 12L24 12L24 13L22 13L21 15L18 16L18 18L16 19L16 21L15 21L15 23L14 23L13 32L14 32L14 36L15 36L16 40L17 40L21 45L26 46L26 47L36 47L36 46L41 45L41 44L46 40L46 38L47 38L47 36L48 36L48 32L49 32L49 27L48 27L47 20L45 19L45 17L44 17L42 14L40 14L40 13L38 13L38 12L34 12L34 11Z"/>
  </g>
</svg>
